<svg width="448" height="244" viewBox="0 0 118.534 64.559" xmlns:xlink="http://www.w3.org/1999/xlink" xmlns="http://www.w3.org/2000/svg">
    <defs>
        <linearGradient id="a">
            <stop style="stop-color:#1a1a1a;stop-opacity:1" offset=".082"/>
            <stop style="stop-color:#202020;stop-opacity:.74901961" offset=".705"/>
            <stop style="stop-color:#262626;stop-opacity:.49803922" offset=".881"/>
            <stop style="stop-color:#333;stop-opacity:0" offset="1"/>
        </linearGradient>
        <linearGradient xlink:href="#a" id="b" x1="66.146" y1="76.729" x2="66.146" y2="124.354" gradientUnits="userSpaceOnUse" gradientTransform="matrix(.99573 0 0 1.0223 -6.596 -77.397)"/>
    </defs>
    <g style="display:inline">
        <path style="display:inline;fill:#333;stroke-width:0;stroke-dasharray:none" d="M9.525 14.817V31.75h32.808v34.396h15.875V31.75h69.85V14.817Z" transform="translate(-9.525 -14.817)"/>
        <path style="display:inline;fill:#84dd63;fill-opacity:1;stroke-width:0;paint-order:markers fill stroke" d="M79.902 15.875a.526.526 0 0 0-.527.527v4.238c0 .292.235.527.527.527h4.238a.526.526 0 0 0 .527-.527v-4.238a.526.526 0 0 0-.527-.527zM11.11 21.167a.526.526 0 0 0-.527.527v4.237c0 .292.235.527.527.527h4.238a.526.526 0 0 0 .527-.527v-4.237a.526.526 0 0 0-.527-.527zm26.459 0a.526.526 0 0 0-.527.527v4.237c0 .292.235.527.527.527h4.237a.526.526 0 0 0 .527-.527v-4.237a.526.526 0 0 0-.527-.527zm31.75 0a.526.526 0 0 0-.527.527v4.237c0 .292.235.527.527.527h4.237a.526.526 0 0 0 .527-.527v-4.237a.526.526 0 0 0-.527-.527zm31.75 0a.526.526 0 0 0-.527.527v4.237c0 .292.235.527.527.527h4.237a.526.526 0 0 0 .527-.527v-4.237a.526.526 0 0 0-.527-.527zm-52.917 5.291a.526.526 0 0 0-.527.527v4.238c0 .292.235.527.527.527h4.238a.526.526 0 0 0 .527-.527v-4.238a.526.526 0 0 0-.527-.527zm63.5 0a.526.526 0 0 0-.527.527v4.238c0 .292.235.527.527.527h4.238a.526.526 0 0 0 .527-.527v-4.238a.526.526 0 0 0-.527-.527zM42.86 42.333a.526.526 0 0 0-.527.527v4.238c0 .292.235.527.527.527h4.238a.526.526 0 0 0 .527-.527V42.86a.526.526 0 0 0-.527-.527zm0 10.584a.526.526 0 0 0-.527.527v4.237c0 .292.235.527.527.527h4.238a.526.526 0 0 0 .527-.527v-4.237a.526.526 0 0 0-.527-.527z" transform="translate(-9.525 -14.817)"/>
        <path style="display:inline;fill:#cbff4d;fill-opacity:1;stroke-width:0;paint-order:markers fill stroke" d="M11.113 15.875a.528.528 0 0 0-.53.53v4.232c0 .294.236.53.53.53h4.233a.528.528 0 0 0 .529-.53v-4.233a.528.528 0 0 0-.53-.529Zm10.583 0a.528.528 0 0 0-.53.53v4.232c0 .294.237.53.53.53h4.233c.293 0 .53-.236.53-.53v-4.233a.528.528 0 0 0-.53-.529zm10.581 0a.526.526 0 0 0-.527.527v4.238c0 .292.235.527.527.527h4.238a.526.526 0 0 0 .527-.527v-4.238a.526.526 0 0 0-.527-.527zm26.46 0a.528.528 0 0 0-.529.53v4.232c0 .294.236.53.53.53h4.233a.528.528 0 0 0 .529-.53v-4.233a.528.528 0 0 0-.53-.529Zm15.873 0a.526.526 0 0 0-.527.527v4.238c0 .292.235.527.527.527h4.238a.526.526 0 0 0 .527-.527v-4.238a.526.526 0 0 0-.527-.527zm26.46 0a.528.528 0 0 0-.528.53v4.232c0 .294.236.53.529.53h4.233c.293 0 .53-.236.53-.53v-4.233a.528.528 0 0 0-.53-.529zm21.168 0a.528.528 0 0 0-.53.53v4.232c0 .294.236.53.53.53h4.233a.528.528 0 0 0 .529-.53v-4.233a.528.528 0 0 0-.53-.529Zm-37.044 5.292a.526.526 0 0 0-.527.527v4.237c0 .292.235.527.527.527h4.237a.526.526 0 0 0 .527-.527v-4.237a.526.526 0 0 0-.527-.527zm-68.792 5.291a.526.526 0 0 0-.527.527v4.238c0 .292.235.527.527.527h4.238a.526.526 0 0 0 .527-.527v-4.238a.526.526 0 0 0-.527-.527zm10.583 0a.526.526 0 0 0-.527.527v4.238c0 .292.235.527.527.527h4.238a.526.526 0 0 0 .527-.527v-4.238a.526.526 0 0 0-.527-.527zm15.875 0a.526.526 0 0 0-.527.527v4.238c0 .292.235.527.527.527h4.238a.526.526 0 0 0 .527-.527v-4.238a.526.526 0 0 0-.527-.527zm26.46 0a.528.528 0 0 0-.528.53v4.233c0 .293.236.529.529.529h4.233c.293 0 .53-.236.53-.53v-4.232a.528.528 0 0 0-.53-.53zm21.168 0a.528.528 0 0 0-.53.53v4.233c0 .293.236.529.53.529h4.233a.528.528 0 0 0 .529-.53v-4.232a.528.528 0 0 0-.53-.53zm15.872 0a.526.526 0 0 0-.527.527v4.238c0 .292.235.527.527.527h4.238a.526.526 0 0 0 .527-.527v-4.238a.526.526 0 0 0-.527-.527zm-63.5 10.584a.526.526 0 0 0-.527.527v4.237c0 .292.235.527.527.527h4.238a.526.526 0 0 0 .527-.527V37.57a.526.526 0 0 0-.527-.527zm10.586 15.875a.528.528 0 0 0-.53.529v4.233c0 .293.237.53.53.53h4.233a.53.53 0 0 0 .53-.53v-4.233a.528.528 0 0 0-.53-.53zM42.862 63.5a.528.528 0 0 0-.529.53v4.233c0 .293.236.529.53.529h4.233a.528.528 0 0 0 .529-.53V64.03a.528.528 0 0 0-.53-.529Zm10.582 0a.526.526 0 0 0-.527.527v4.238c0 .292.235.527.527.527h4.237a.526.526 0 0 0 .527-.527v-4.238a.526.526 0 0 0-.527-.527z" transform="translate(-9.525 -14.817)"/>
        <path style="display:inline;fill:#ff5154;fill-opacity:1;stroke-width:0;paint-order:markers fill stroke" d="M26.988 15.875a.528.528 0 0 0-.53.53v4.232c0 .294.236.53.53.53h4.233a.528.528 0 0 0 .529-.53v-4.233a.528.528 0 0 0-.53-.529Zm15.875 0a.528.528 0 0 0-.53.53v4.232c0 .294.236.53.53.53h4.233a.528.528 0 0 0 .529-.53v-4.233a.528.528 0 0 0-.53-.529Zm26.458 0a.528.528 0 0 0-.53.53v4.232c0 .294.237.53.53.53h4.233c.293 0 .53-.236.53-.53v-4.233a.528.528 0 0 0-.53-.529zm21.166 0a.528.528 0 0 0-.529.53v4.232c0 .294.236.53.53.53h4.233a.528.528 0 0 0 .529-.53v-4.233a.528.528 0 0 0-.53-.529Zm15.876 0a.528.528 0 0 0-.53.53v4.232c0 .294.236.53.53.53h4.233a.528.528 0 0 0 .529-.53v-4.233a.528.528 0 0 0-.53-.529zm-95.25 10.583a.528.528 0 0 0-.53.53v4.233c0 .293.236.529.53.529h4.233a.528.528 0 0 0 .529-.53v-4.232a.528.528 0 0 0-.53-.53zm10.583 0a.528.528 0 0 0-.53.53v4.233c0 .293.237.529.53.529h4.233c.293 0 .53-.236.53-.53v-4.232a.528.528 0 0 0-.53-.53zm15.875 0a.528.528 0 0 0-.53.53v4.233c0 .293.237.529.53.529h4.233c.293 0 .53-.236.53-.53v-4.232a.528.528 0 0 0-.53-.53zm15.875 0a.528.528 0 0 0-.53.53v4.233c0 .293.237.529.53.529h4.233c.293 0 .53-.236.53-.53v-4.232a.528.528 0 0 0-.53-.53zm10.583 0a.528.528 0 0 0-.529.53v4.233c0 .293.236.529.53.529h4.233a.528.528 0 0 0 .529-.53v-4.232a.528.528 0 0 0-.53-.53zm10.584 0a.528.528 0 0 0-.53.53v4.233c0 .293.236.529.53.529h4.233a.528.528 0 0 0 .529-.53v-4.232a.528.528 0 0 0-.53-.53zm26.458 0a.528.528 0 0 0-.53.53v4.233c0 .293.237.529.53.529h4.233c.293 0 .53-.236.53-.53v-4.232a.528.528 0 0 0-.53-.53zm15.875 0a.528.528 0 0 0-.53.53v4.233c0 .293.237.529.53.529h4.233c.293 0 .53-.236.53-.53v-4.232a.528.528 0 0 0-.53-.53zM42.862 31.75a.528.528 0 0 0-.529.53v4.233c0 .293.236.529.53.529h4.233a.528.528 0 0 0 .529-.53V32.28a.528.528 0 0 0-.53-.529Zm10.584 5.292a.528.528 0 0 0-.53.529v4.233c0 .293.237.53.53.53h4.233a.53.53 0 0 0 .53-.53v-4.233a.528.528 0 0 0-.53-.53zm-5.292 5.291a.528.528 0 0 0-.529.53v4.233c0 .293.236.529.53.529h4.233a.528.528 0 0 0 .529-.53v-4.233a.528.528 0 0 0-.53-.529zm-5.292 5.292a.528.528 0 0 0-.529.53v4.233c0 .293.236.529.53.529h4.233a.528.528 0 0 0 .529-.53v-4.233a.528.528 0 0 0-.53-.529ZM48.154 63.5a.528.528 0 0 0-.529.53v4.233c0 .293.236.529.53.529h4.233a.528.528 0 0 0 .529-.53V64.03a.528.528 0 0 0-.53-.529Zm-5.292 10.583a.528.528 0 0 0-.529.53v4.233c0 .293.236.529.53.529h4.233a.528.528 0 0 0 .529-.53v-4.233a.528.528 0 0 0-.53-.529z" transform="translate(-9.525 -14.817)"/>
        <path style="display:inline;fill:#efa00b;fill-opacity:1;stroke-width:0;paint-order:markers fill stroke" d="M37.569 15.875a.526.526 0 0 0-.527.527v4.238c0 .292.235.527.527.527h4.237a.526.526 0 0 0 .527-.527v-4.238a.526.526 0 0 0-.527-.527zm-21.165 5.292a.528.528 0 0 0-.529.529v4.233c0 .293.236.53.53.53h4.232c.294 0 .53-.237.53-.53v-4.233a.528.528 0 0 0-.53-.53zm31.748 0a.526.526 0 0 0-.527.527v4.237c0 .292.235.527.527.527h4.238a.526.526 0 0 0 .527-.527v-4.237a.526.526 0 0 0-.527-.527zm15.877 0a.528.528 0 0 0-.529.529v4.233c0 .293.236.53.53.53h4.233a.529.529 0 0 0 .529-.53v-4.233a.528.528 0 0 0-.53-.53zm15.873 0a.526.526 0 0 0-.527.527v4.237c0 .292.235.527.527.527h4.238a.526.526 0 0 0 .527-.527v-4.237a.526.526 0 0 0-.527-.527zm15.877 0a.528.528 0 0 0-.529.529v4.233c0 .293.236.53.53.53h4.232c.294 0 .53-.237.53-.53v-4.233a.528.528 0 0 0-.53-.53zm15.873 0a.526.526 0 0 0-.527.527v4.237c0 .292.235.527.527.527h4.238a.526.526 0 0 0 .527-.527v-4.237a.526.526 0 0 0-.527-.527zm10.586 5.291a.528.528 0 0 0-.53.53v4.233c0 .293.236.529.53.529h4.233a.528.528 0 0 0 .529-.53v-4.232a.528.528 0 0 0-.53-.53zM53.444 31.75a.526.526 0 0 0-.527.527v4.238c0 .292.235.527.527.527h4.237a.526.526 0 0 0 .527-.527v-4.238a.526.526 0 0 0-.527-.527zm0 15.875a.526.526 0 0 0-.527.527v4.238c0 .292.235.527.527.527h4.237a.526.526 0 0 0 .527-.527v-4.238a.526.526 0 0 0-.527-.527zm-5.29 10.583a.528.528 0 0 0-.529.53v4.233c0 .293.236.529.53.529h4.233a.528.528 0 0 0 .529-.53v-4.233a.528.528 0 0 0-.53-.529zm-5.292 10.584a.528.528 0 0 0-.529.529v4.233c0 .293.236.53.53.53h4.233a.529.529 0 0 0 .529-.53v-4.233a.528.528 0 0 0-.53-.53z" transform="translate(-9.525 -14.817)"/>
        <path style="display:inline;fill:#7fefbd;fill-opacity:1;stroke-width:0;paint-order:markers fill stroke" d="M16.404 15.875a.528.528 0 0 0-.529.53v4.232c0 .294.236.53.53.53h4.232c.294 0 .53-.236.53-.53v-4.233a.528.528 0 0 0-.53-.529zm37.04 0a.526.526 0 0 0-.527.527v4.238c0 .292.235.527.527.527h4.237a.526.526 0 0 0 .527-.527v-4.238a.526.526 0 0 0-.527-.527zm42.335 0a.528.528 0 0 0-.529.53v4.232c0 .294.236.53.53.53h4.232c.294 0 .53-.236.53-.53v-4.233a.528.528 0 0 0-.53-.529zm21.167 0a.528.528 0 0 0-.53.53v4.232c0 .294.237.53.53.53h4.233c.293 0 .53-.236.53-.53v-4.233a.528.528 0 0 0-.53-.529zM74.61 21.167a.526.526 0 0 0-.527.527v4.237c0 .292.235.527.527.527h4.238a.526.526 0 0 0 .527-.527v-4.237a.526.526 0 0 0-.527-.527zm31.75 0a.526.526 0 0 0-.527.527v4.237c0 .292.235.527.527.527h4.238a.526.526 0 0 0 .527-.527v-4.237a.526.526 0 0 0-.527-.527zm-74.083 5.291a.526.526 0 0 0-.527.527v4.238c0 .292.235.527.527.527h4.238a.526.526 0 0 0 .527-.527v-4.238a.526.526 0 0 0-.527-.527zm26.46 0a.528.528 0 0 0-.529.53v4.233c0 .293.236.529.53.529h4.233a.528.528 0 0 0 .529-.53v-4.232a.528.528 0 0 0-.53-.53zM48.152 37.042a.526.526 0 0 0-.527.527v4.237c0 .292.235.527.527.527h4.238a.526.526 0 0 0 .527-.527V37.57a.526.526 0 0 0-.527-.527zm-5.29 21.166a.528.528 0 0 0-.529.53v4.233c0 .293.236.529.53.529h4.233a.528.528 0 0 0 .529-.53v-4.233a.528.528 0 0 0-.53-.529z" transform="translate(-9.525 -14.817)"/>
        <path style="display:inline;fill:#0075c4;fill-opacity:1;stroke-width:0;paint-order:markers fill stroke" d="M64.03 15.875a.528.528 0 0 0-.53.53v4.232c0 .294.236.53.53.53h4.233a.528.528 0 0 0 .529-.53v-4.233a.528.528 0 0 0-.53-.529zm21.166 0a.528.528 0 0 0-.53.53v4.232c0 .294.237.53.53.53h4.233c.293 0 .53-.236.53-.53v-4.233a.528.528 0 0 0-.53-.529zm-58.209 5.292a.528.528 0 0 0-.529.529v4.233c0 .293.236.53.53.53h4.233a.529.529 0 0 0 .529-.53v-4.233a.528.528 0 0 0-.53-.53zm15.875 0a.528.528 0 0 0-.529.529v4.233c0 .293.236.53.53.53h4.233a.529.529 0 0 0 .529-.53v-4.233a.528.528 0 0 0-.53-.53zm10.584 0a.528.528 0 0 0-.53.529v4.233c0 .293.237.53.53.53h4.233a.53.53 0 0 0 .53-.53v-4.233a.528.528 0 0 0-.53-.53zm63.5 0a.528.528 0 0 0-.53.529v4.233c0 .293.237.53.53.53h4.233a.53.53 0 0 0 .53-.53v-4.233a.528.528 0 0 0-.53-.53zm-31.75 5.291a.528.528 0 0 0-.53.53v4.233c0 .293.237.529.53.529h4.233c.293 0 .53-.236.53-.53v-4.232a.528.528 0 0 0-.53-.53zm10.583 0a.528.528 0 0 0-.529.53v4.233c0 .293.236.529.53.529h4.232c.294 0 .53-.236.53-.53v-4.232a.528.528 0 0 0-.53-.53zM48.154 31.75a.528.528 0 0 0-.529.53v4.233c0 .293.236.529.53.529h4.233a.528.528 0 0 0 .529-.53V32.28a.528.528 0 0 0-.53-.529Zm0 15.875a.528.528 0 0 0-.529.53v4.233c0 .293.236.529.53.529h4.233a.528.528 0 0 0 .529-.53v-4.233a.528.528 0 0 0-.53-.529zm5.292 10.583a.528.528 0 0 0-.53.53v4.233c0 .293.237.529.53.529h4.233c.293 0 .53-.236.53-.53v-4.233a.528.528 0 0 0-.53-.529zm-5.292 10.584a.528.528 0 0 0-.529.529v4.233c0 .293.236.53.53.53h4.233a.529.529 0 0 0 .529-.53v-4.233a.528.528 0 0 0-.53-.53z" transform="translate(-9.525 -14.817)"/>
        <path style="display:inline;fill:#3a0ca3;fill-opacity:1;stroke-width:0;paint-order:markers fill stroke" d="M48.154 15.875a.528.528 0 0 0-.529.53v4.232c0 .294.236.53.53.53h4.233a.528.528 0 0 0 .529-.53v-4.233a.528.528 0 0 0-.53-.529zm63.5 0a.528.528 0 0 0-.529.53v4.232c0 .294.236.53.53.53h4.232c.294 0 .53-.236.53-.53v-4.233a.528.528 0 0 0-.53-.529zm-89.958 5.292a.528.528 0 0 0-.53.529v4.233c0 .293.237.53.53.53h4.233a.53.53 0 0 0 .53-.53v-4.233a.528.528 0 0 0-.53-.53zm10.583 0a.528.528 0 0 0-.529.529v4.233c0 .293.236.53.53.53h4.233a.529.529 0 0 0 .529-.53v-4.233a.528.528 0 0 0-.53-.53zm26.458 0a.528.528 0 0 0-.529.529v4.233c0 .293.236.53.53.53h4.233a.529.529 0 0 0 .529-.53v-4.233a.528.528 0 0 0-.53-.53zm31.75 0a.528.528 0 0 0-.529.529v4.233c0 .293.236.53.53.53h4.233a.529.529 0 0 0 .529-.53v-4.233a.528.528 0 0 0-.53-.53zm31.75 0a.528.528 0 0 0-.529.529v4.233c0 .293.236.53.53.53h4.233a.529.529 0 0 0 .529-.53v-4.233a.528.528 0 0 0-.53-.53zm-42.333 5.291a.528.528 0 0 0-.529.53v4.233c0 .293.236.529.53.529h4.233a.528.528 0 0 0 .529-.53v-4.232a.528.528 0 0 0-.53-.53zM53.446 42.333a.528.528 0 0 0-.53.53v4.233c0 .293.237.529.53.529h4.233c.293 0 .53-.236.53-.53v-4.233a.528.528 0 0 0-.53-.529zm-5.292 10.584a.528.528 0 0 0-.529.529v4.233c0 .293.236.53.53.53h4.233a.529.529 0 0 0 .529-.53v-4.233a.528.528 0 0 0-.53-.53z" transform="translate(-9.525 -14.817)"/>
        <path style="opacity:1;fill:url(#b);stroke-width:0;paint-order:markers fill stroke" d="M1.044 1.042h116.445V50.27H1.044Z"/>
        <path style="fill:#333;stroke-width:.262443" d="M9.525 31.75v34.396h32.808V31.75Zm48.683 0v34.396h69.85V31.75H92.604Z" transform="translate(-9.525 -14.817)"/>
        <path style="fill:#1a1a1a;stroke-width:.245902" d="M10.583 32.808v21.696h13.585a.503.53 0 0 1 .503.53v.529a.503.53 0 0 1-.503.529H10.583v8.996h30.692V43.392H27.69a.503.53 0 0 1-.503-.53v-.529a.503.53 0 0 1 .503-.529h13.585v-8.996zm48.684 0v32.28H74.86V50.8a.538.53 0 0 1 .537-.53h.538a.538.53 0 0 1 .538.53v14.288h16.131v-32.28Zm34.395 0v15.346h9.035a.551.53 0 0 1 .551.53v.54a.54.518 0 0 1-.54.518h-9.046v15.346h16.064v-8.996a.54.53 0 0 1 .54-.53h.54a.54.53 0 0 1 .54.53v8.996H127V49.742h-9.177a.54.53 0 0 1-.54-.53v-.529a.54.53 0 0 1 .54-.529H127V32.808h-15.654v8.996a.529.53 0 0 1-.529.53h-.562a.529.53 0 0 1-.529-.53v-8.996z" transform="translate(-9.525 -14.817)"/>
    </g>
    <rect style="fill:#333;stroke-width:0;paint-order:markers fill stroke" width="118.533" height="1.058" ry="0"/>
    <rect style="fill:#333;stroke-width:0;paint-order:markers fill stroke" width="1.058" height="50.271" y="1.058" ry="0"/>
    <rect style="fill:#333;stroke-width:0;paint-order:markers fill stroke" width="1.058" height="48.683" x="117.476" ry="0"/>
</svg>
