<svg xmlns="http://www.w3.org/2000/svg" width="134" height="130" viewBox="0 0 35.454366 34.396189">
  <path fill="#333" d="M-.000279 0v34.396h35.454V0Z"/>
  <path fill="#1a1a1a" d="M1.057721 1.058v15.346h9.035c.30431 0 .551.237289.551.53v.54c0 .286084-.24177.518-.54.518h-9.046v15.346h16.064v-8.996c0-.292711.24177-.53.54-.53h.54c.29823 0 .54.237289.54.53v8.996h15.654V17.992h-9.177c-.29823 0-.54-.237289-.54-.53v-.529c.00056-.29232.24216-.529001.54-.529h9.177V1.058h-15.654v8.996c0 .292711-.23684.53-.529.53h-.562c-.29216 0-.529-.237289-.529-.53V1.058z"/>
</svg>
