<svg xmlns="http://www.w3.org/2000/svg" xmlns:xlink="http://www.w3.org/1999/xlink" width="448" height="244" viewBox="0 0 118.534 64.559">
  <defs>
    <linearGradient id="a">
      <stop offset=".082" stop-color="#1a1a1a"/>
      <stop offset=".705" stop-color="#202020" stop-opacity=".74901961"/>
      <stop offset=".881" stop-color="#262626" stop-opacity=".49803922"/>
      <stop offset="1" stop-color="#333" stop-opacity="0"/>
    </linearGradient>
    <linearGradient xlink:href="#a" id="b" x1="66.146" x2="66.146" y1="76.729" y2="124.354" gradientTransform="matrix(.99573 0 0 1.0223 -6.596 -77.397)" gradientUnits="userSpaceOnUse"/>
  </defs>
  <path fill="#333" d="M9.525 14.817V31.75h32.808v34.396h15.875V31.75h69.85V14.817Z" style="mix-blend-mode:normal" transform="translate(-9.525 -14.817)"/>
  <path fill="#84dd63" d="M70.377 1.058a.526.526 0 0 0-.527.527v4.238c0 .292.235.527.527.527h4.238a.526.526 0 0 0 .527-.527V1.585a.526.526 0 0 0-.527-.527ZM1.585 6.35a.526.526 0 0 0-.527.527v4.237c0 .292.235.527.527.527h4.238a.526.526 0 0 0 .527-.527V6.877a.526.526 0 0 0-.527-.527zm26.459 0a.526.526 0 0 0-.527.527v4.237c0 .292.235.527.527.527h4.237a.526.526 0 0 0 .527-.527V6.877a.526.526 0 0 0-.527-.527zm31.75 0a.526.526 0 0 0-.527.527v4.237c0 .292.235.527.527.527h4.237a.526.526 0 0 0 .527-.527V6.877a.526.526 0 0 0-.527-.527zm31.75 0a.526.526 0 0 0-.527.527v4.237c0 .292.235.527.527.527h4.237a.526.526 0 0 0 .527-.527V6.877a.526.526 0 0 0-.527-.527zm-52.917 5.291a.526.526 0 0 0-.527.527v4.238c0 .292.235.527.527.527h4.238a.526.526 0 0 0 .527-.527v-4.238a.526.526 0 0 0-.527-.527Zm63.5 0a.526.526 0 0 0-.527.527v4.238c0 .292.235.527.527.527h4.238a.526.526 0 0 0 .527-.527v-4.238a.526.526 0 0 0-.527-.527ZM33.335 27.516a.526.526 0 0 0-.527.527v4.238c0 .292.235.527.527.527h4.238a.526.526 0 0 0 .527-.527v-4.238a.526.526 0 0 0-.527-.527zm0 10.584a.526.526 0 0 0-.527.527v4.237c0 .292.235.527.527.527h4.238a.526.526 0 0 0 .527-.527v-4.237a.526.526 0 0 0-.527-.527z" paint-order="markers fill stroke"/>
  <path fill="#cbff4d" d="M1.588 1.058a.528.528 0 0 0-.53.53V5.82c0 .294.236.53.53.53h4.233a.528.528 0 0 0 .529-.53V1.587a.528.528 0 0 0-.53-.529zm10.583 0a.528.528 0 0 0-.53.53V5.82c0 .294.237.53.53.53h4.233c.293 0 .53-.236.53-.53V1.587a.528.528 0 0 0-.53-.529zm10.581 0a.526.526 0 0 0-.527.527v4.238c0 .292.235.527.527.527h4.238a.526.526 0 0 0 .527-.527V1.585a.526.526 0 0 0-.527-.527zm26.46 0a.528.528 0 0 0-.529.53V5.82c0 .294.236.53.53.53h4.233a.528.528 0 0 0 .529-.53V1.587a.528.528 0 0 0-.53-.529zm15.873 0a.526.526 0 0 0-.527.527v4.238c0 .292.235.527.527.527h4.238a.526.526 0 0 0 .527-.527V1.585a.526.526 0 0 0-.527-.527zm26.46 0a.528.528 0 0 0-.528.53V5.82c0 .294.236.53.529.53h4.233c.293 0 .53-.236.53-.53V1.587a.528.528 0 0 0-.53-.529zm21.168 0a.528.528 0 0 0-.53.53V5.82c0 .294.236.53.53.53h4.233a.528.528 0 0 0 .529-.53V1.587a.528.528 0 0 0-.53-.529zM75.669 6.35a.526.526 0 0 0-.527.527v4.237c0 .292.235.527.527.527h4.237a.526.526 0 0 0 .527-.527V6.877a.526.526 0 0 0-.527-.527zM6.877 11.641a.526.526 0 0 0-.527.527v4.238c0 .292.235.527.527.527h4.238a.526.526 0 0 0 .527-.527v-4.238a.526.526 0 0 0-.527-.527Zm10.583 0a.526.526 0 0 0-.527.527v4.238c0 .292.235.527.527.527h4.238a.526.526 0 0 0 .527-.527v-4.238a.526.526 0 0 0-.527-.527zm15.875 0a.526.526 0 0 0-.527.527v4.238c0 .292.235.527.527.527h4.238a.526.526 0 0 0 .527-.527v-4.238a.526.526 0 0 0-.527-.527zm26.46 0a.528.528 0 0 0-.528.53v4.233c0 .293.236.529.529.529h4.233c.293 0 .53-.236.53-.53v-4.232a.528.528 0 0 0-.53-.53zm21.168 0a.528.528 0 0 0-.53.53v4.233c0 .293.236.529.53.529h4.233a.528.528 0 0 0 .529-.53v-4.232a.528.528 0 0 0-.53-.53zm15.872 0a.526.526 0 0 0-.527.527v4.238c0 .292.235.527.527.527h4.238a.526.526 0 0 0 .527-.527v-4.238a.526.526 0 0 0-.527-.527zm-63.5 10.584a.526.526 0 0 0-.527.527v4.237c0 .292.235.527.527.527h4.238a.526.526 0 0 0 .527-.527v-4.236a.526.526 0 0 0-.527-.527zM43.921 38.1a.528.528 0 0 0-.53.529v4.233c0 .293.237.53.53.53h4.233a.53.53 0 0 0 .53-.53v-4.233a.528.528 0 0 0-.53-.53zM33.337 48.683a.528.528 0 0 0-.529.53v4.233c0 .293.236.529.53.529h4.233a.528.528 0 0 0 .529-.53v-4.232a.528.528 0 0 0-.53-.529zm10.582 0a.526.526 0 0 0-.527.527v4.238c0 .292.235.527.527.527h4.237a.526.526 0 0 0 .527-.527V49.21a.526.526 0 0 0-.527-.527Z" paint-order="markers fill stroke"/>
  <path fill="#ff5154" d="M17.463 1.058a.528.528 0 0 0-.53.53V5.82c0 .294.236.53.53.53h4.233a.528.528 0 0 0 .529-.53V1.587a.528.528 0 0 0-.53-.529zm15.875 0a.528.528 0 0 0-.53.53V5.82c0 .294.236.53.53.53h4.233a.528.528 0 0 0 .529-.53V1.587a.528.528 0 0 0-.53-.529zm26.458 0a.528.528 0 0 0-.53.53V5.82c0 .294.237.53.53.53h4.233c.293 0 .53-.236.53-.53V1.587a.528.528 0 0 0-.53-.529zm21.166 0a.528.528 0 0 0-.529.53V5.82c0 .294.236.53.53.53h4.233a.528.528 0 0 0 .529-.53V1.587a.528.528 0 0 0-.53-.529zm15.876 0a.528.528 0 0 0-.53.53V5.82c0 .294.236.53.53.53h4.233a.528.528 0 0 0 .529-.53V1.587a.528.528 0 0 0-.53-.529zM1.588 11.641a.528.528 0 0 0-.53.53v4.233c0 .293.236.529.53.529h4.233a.528.528 0 0 0 .529-.53v-4.232a.528.528 0 0 0-.53-.53zm10.583 0a.528.528 0 0 0-.53.53v4.233c0 .293.237.529.53.529h4.233c.293 0 .53-.236.53-.53v-4.232a.528.528 0 0 0-.53-.53zm15.875 0a.528.528 0 0 0-.53.53v4.233c0 .293.237.529.53.529h4.233c.293 0 .53-.236.53-.53v-4.232a.528.528 0 0 0-.53-.53zm15.875 0a.528.528 0 0 0-.53.53v4.233c0 .293.237.529.53.529h4.233c.293 0 .53-.236.53-.53v-4.232a.528.528 0 0 0-.53-.53zm10.583 0a.528.528 0 0 0-.529.53v4.233c0 .293.236.529.53.529h4.233a.528.528 0 0 0 .529-.53v-4.232a.528.528 0 0 0-.53-.53zm10.584 0a.528.528 0 0 0-.53.53v4.233c0 .293.236.529.53.529h4.233a.528.528 0 0 0 .529-.53v-4.232a.528.528 0 0 0-.53-.53zm26.458 0a.528.528 0 0 0-.53.53v4.233c0 .293.237.529.53.529h4.233c.293 0 .53-.236.53-.53v-4.232a.528.528 0 0 0-.53-.53zm15.875 0a.528.528 0 0 0-.53.53v4.233c0 .293.237.529.53.529h4.233c.293 0 .53-.236.53-.53v-4.232a.528.528 0 0 0-.53-.53zm-74.084 5.292a.528.528 0 0 0-.529.53v4.233c0 .293.236.529.53.529h4.233a.528.528 0 0 0 .529-.53v-4.232a.528.528 0 0 0-.53-.529zm10.584 5.292a.528.528 0 0 0-.53.529v4.233c0 .293.237.53.53.53h4.233a.53.53 0 0 0 .53-.53v-4.233a.528.528 0 0 0-.53-.53zm-5.292 5.291a.528.528 0 0 0-.529.53v4.233c0 .293.236.529.53.529h4.233a.528.528 0 0 0 .529-.53v-4.233a.528.528 0 0 0-.53-.529zm-5.292 5.292a.528.528 0 0 0-.529.53v4.233c0 .293.236.529.53.529h4.233a.528.528 0 0 0 .529-.53v-4.233a.528.528 0 0 0-.53-.529zm5.292 15.875a.528.528 0 0 0-.529.53v4.233c0 .293.236.529.53.529h4.233a.528.528 0 0 0 .529-.53v-4.232a.528.528 0 0 0-.53-.529zm-5.292 10.583a.528.528 0 0 0-.529.53v4.233c0 .293.236.529.53.529h4.233a.528.528 0 0 0 .529-.53v-4.233a.528.528 0 0 0-.53-.529z" paint-order="markers fill stroke"/>
  <path fill="#efa00b" d="M28.044 1.058a.526.526 0 0 0-.527.527v4.238c0 .292.235.527.527.527h4.237a.526.526 0 0 0 .527-.527V1.585a.526.526 0 0 0-.527-.527zM6.879 6.35a.528.528 0 0 0-.529.529v4.233c0 .293.236.53.53.53h4.232c.294 0 .53-.237.53-.53V6.879a.528.528 0 0 0-.53-.53zm31.748 0a.526.526 0 0 0-.527.527v4.237c0 .292.235.527.527.527h4.238a.526.526 0 0 0 .527-.527V6.877a.526.526 0 0 0-.527-.527Zm15.877 0a.528.528 0 0 0-.529.529v4.233c0 .293.236.53.53.53h4.233a.529.529 0 0 0 .529-.53V6.879a.528.528 0 0 0-.53-.53zm15.873 0a.526.526 0 0 0-.527.527v4.237c0 .292.235.527.527.527h4.238a.526.526 0 0 0 .527-.527V6.877a.526.526 0 0 0-.527-.527Zm15.877 0a.528.528 0 0 0-.529.529v4.233c0 .293.236.53.53.53h4.232c.294 0 .53-.237.53-.53V6.879a.528.528 0 0 0-.53-.53zm15.873 0a.526.526 0 0 0-.527.527v4.237c0 .292.235.527.527.527h4.238a.526.526 0 0 0 .527-.527V6.877a.526.526 0 0 0-.527-.527zm10.586 5.291a.528.528 0 0 0-.53.53v4.233c0 .293.236.529.53.529h4.233a.528.528 0 0 0 .529-.53v-4.232a.528.528 0 0 0-.53-.53zm-68.794 5.292a.526.526 0 0 0-.527.527v4.238c0 .292.235.527.527.527h4.237a.526.526 0 0 0 .527-.527V17.46a.526.526 0 0 0-.527-.527Zm0 15.875a.526.526 0 0 0-.527.527v4.238c0 .292.235.527.527.527h4.237a.526.526 0 0 0 .527-.527v-4.238a.526.526 0 0 0-.527-.527zm-5.29 10.583a.528.528 0 0 0-.529.53v4.233c0 .293.236.529.53.529h4.233a.528.528 0 0 0 .529-.53V43.92a.528.528 0 0 0-.53-.529zm-5.292 10.584a.528.528 0 0 0-.529.529v4.233c0 .293.236.53.53.53h4.233a.529.529 0 0 0 .529-.53v-4.233a.528.528 0 0 0-.53-.53z" paint-order="markers fill stroke"/>
  <path fill="#7fefbd" d="M6.879 1.058a.528.528 0 0 0-.529.53V5.82c0 .294.236.53.53.53h4.232c.294 0 .53-.236.53-.53V1.587a.528.528 0 0 0-.53-.529zm37.04 0a.526.526 0 0 0-.527.527v4.238c0 .292.235.527.527.527h4.237a.526.526 0 0 0 .527-.527V1.585a.526.526 0 0 0-.527-.527zm42.335 0a.528.528 0 0 0-.529.53V5.82c0 .294.236.53.53.53h4.232c.294 0 .53-.236.53-.53V1.587a.528.528 0 0 0-.53-.529zm21.167 0a.528.528 0 0 0-.53.53V5.82c0 .294.237.53.53.53h4.233c.293 0 .53-.236.53-.53V1.587a.528.528 0 0 0-.53-.529zM65.085 6.35a.526.526 0 0 0-.527.527v4.237c0 .292.235.527.527.527h4.238a.526.526 0 0 0 .527-.527V6.877a.526.526 0 0 0-.527-.527zm31.75 0a.526.526 0 0 0-.527.527v4.237c0 .292.235.527.527.527h4.238a.526.526 0 0 0 .527-.527V6.877a.526.526 0 0 0-.527-.527zm-74.083 5.291a.526.526 0 0 0-.527.527v4.238c0 .292.235.527.527.527h4.238a.526.526 0 0 0 .527-.527v-4.238a.526.526 0 0 0-.527-.527zm26.46 0a.528.528 0 0 0-.529.53v4.233c0 .293.236.529.53.529h4.233a.528.528 0 0 0 .529-.53v-4.232a.528.528 0 0 0-.53-.53zM38.627 22.225a.526.526 0 0 0-.527.527v4.237c0 .292.235.527.527.527h4.238a.526.526 0 0 0 .527-.527v-4.236a.526.526 0 0 0-.527-.527Zm-5.29 21.166a.528.528 0 0 0-.529.53v4.233c0 .293.236.529.53.529h4.233a.528.528 0 0 0 .529-.53V43.92a.528.528 0 0 0-.53-.529z" paint-order="markers fill stroke"/>
  <path fill="#0075c4" d="M54.505 1.058a.528.528 0 0 0-.53.53V5.82c0 .294.236.53.53.53h4.233a.528.528 0 0 0 .529-.53V1.587a.528.528 0 0 0-.53-.529zm21.166 0a.528.528 0 0 0-.53.53V5.82c0 .294.237.53.53.53h4.233c.293 0 .53-.236.53-.53V1.587a.528.528 0 0 0-.53-.529zM17.462 6.35a.528.528 0 0 0-.529.529v4.233c0 .293.236.53.53.53h4.233a.529.529 0 0 0 .529-.53V6.879a.528.528 0 0 0-.53-.53zm15.875 0a.528.528 0 0 0-.529.529v4.233c0 .293.236.53.53.53h4.233a.529.529 0 0 0 .529-.53V6.879a.528.528 0 0 0-.53-.53zm10.584 0a.528.528 0 0 0-.53.529v4.233c0 .293.237.53.53.53h4.233a.53.53 0 0 0 .53-.53V6.879a.528.528 0 0 0-.53-.53zm63.5 0a.528.528 0 0 0-.53.529v4.233c0 .293.237.53.53.53h4.233a.53.53 0 0 0 .53-.53V6.879a.528.528 0 0 0-.53-.53zm-31.75 5.291a.528.528 0 0 0-.53.53v4.233c0 .293.237.529.53.529h4.233c.293 0 .53-.236.53-.53v-4.232a.528.528 0 0 0-.53-.53zm10.583 0a.528.528 0 0 0-.529.53v4.233c0 .293.236.529.53.529h4.232c.294 0 .53-.236.53-.53v-4.232a.528.528 0 0 0-.53-.53zm-47.625 5.292a.528.528 0 0 0-.529.53v4.233c0 .293.236.529.53.529h4.233a.528.528 0 0 0 .529-.53v-4.232a.528.528 0 0 0-.53-.529zm0 15.875a.528.528 0 0 0-.529.53v4.233c0 .293.236.529.53.529h4.233a.528.528 0 0 0 .529-.53v-4.233a.528.528 0 0 0-.53-.529zm5.292 10.583a.528.528 0 0 0-.53.53v4.233c0 .293.237.529.53.529h4.233c.293 0 .53-.236.53-.53V43.92a.528.528 0 0 0-.53-.529zm-5.292 10.584a.528.528 0 0 0-.529.529v4.233c0 .293.236.53.53.53h4.233a.529.529 0 0 0 .529-.53v-4.233a.528.528 0 0 0-.53-.53z" paint-order="markers fill stroke"/>
  <path fill="#3a0ca3" d="M38.629 1.058a.528.528 0 0 0-.529.53V5.82c0 .294.236.53.53.53h4.233a.528.528 0 0 0 .529-.53V1.587a.528.528 0 0 0-.53-.529zm63.5 0a.528.528 0 0 0-.529.53V5.82c0 .294.236.53.53.53h4.232c.294 0 .53-.236.53-.53V1.587a.528.528 0 0 0-.53-.529zM12.171 6.35a.528.528 0 0 0-.53.529v4.233c0 .293.237.53.53.53h4.233a.53.53 0 0 0 .53-.53V6.879a.528.528 0 0 0-.53-.53zm10.583 0a.528.528 0 0 0-.529.529v4.233c0 .293.236.53.53.53h4.233a.529.529 0 0 0 .529-.53V6.879a.528.528 0 0 0-.53-.53zm26.458 0a.528.528 0 0 0-.529.529v4.233c0 .293.236.53.53.53h4.233a.529.529 0 0 0 .529-.53V6.879a.528.528 0 0 0-.53-.53zm31.75 0a.528.528 0 0 0-.529.529v4.233c0 .293.236.53.53.53h4.233a.529.529 0 0 0 .529-.53V6.879a.528.528 0 0 0-.53-.53zm31.75 0a.528.528 0 0 0-.529.529v4.233c0 .293.236.53.53.53h4.233a.529.529 0 0 0 .529-.53V6.879a.528.528 0 0 0-.53-.53zm-42.333 5.291a.528.528 0 0 0-.529.53v4.233c0 .293.236.529.53.529h4.233a.528.528 0 0 0 .529-.53v-4.232a.528.528 0 0 0-.53-.53zM43.921 27.516a.528.528 0 0 0-.53.53v4.233c0 .293.237.529.53.529h4.233c.293 0 .53-.236.53-.53v-4.233a.528.528 0 0 0-.53-.529zM38.629 38.1a.528.528 0 0 0-.529.529v4.233c0 .293.236.53.53.53h4.233a.529.529 0 0 0 .529-.53v-4.233a.528.528 0 0 0-.53-.53z" paint-order="markers fill stroke"/>
  <path fill="url(#b)" d="M1.0441128 1.0418076V17.990819H31.750049v32.278983h17.991853V17.990819h67.746948V1.0418076Z" paint-order="markers fill stroke"/>
  <path fill="#333" d="M.0002381 16.932991v1.057828H31.750049V51.32918h1.057828V16.932991Zm48.6828029 0V51.32918h1.036123V17.990819h68.814086v-1.057828H83.079229Z"/>
</svg>
